<svg id="Layer_5" enable-background="new 0 0 64 64" height="512" viewBox="0 0 64 64" width="512" xmlns="http://www.w3.org/2000/svg" xmlns:xlink="http://www.w3.org/1999/xlink"><linearGradient id="SVGID_1_" gradientUnits="userSpaceOnUse" x1="32" x2="32" y1="63" y2="1"><stop offset="0" stop-color="#9f2fff"/><stop offset="1" stop-color="#0bb1d3"/></linearGradient><path d="m14 57h2v2h-2zm4 2h2v-2h-2zm26-14h2v-2h-2zm-4 0h2v-2h-2zm-26-14h2v-2h-2zm4 0h2v-2h-2zm18-17h2c0-3.86-3.141-7-7-7v2c2.757 0 5 2.243 5 5zm-29 9h-2c0 2.206 1.794 4 4 4v-2c-1.103 0-2-.897-2-2zm31-4c1.654 0 3 1.346 3 3h2c0-2.757-2.243-5-5-5zm22.198-7.49 2.802.713v7.555l-2.802.713c-.119.319-.253.639-.4.956l1.479 2.489-5.342 5.342-2.489-1.48c-.317.147-.638.281-.956.4l-.713 2.802h-1.777v1c0 1.654-1.346 3-3 3v4c1.654 0 3 1.346 3 3v4c0 1.654-1.346 3-3 3v4c1.654 0 3 1.346 3 3v4c0 1.654-1.346 3-3 3h-34c-1.654 0-3-1.346-3-3v-4c0-1.654 1.346-3 3-3v-4c-1.654 0-3-1.346-3-3v-4c0-1.654 1.346-3 3-3v-4c-1.654 0-3-1.346-3-3v-1h-1c-4.411 0-8-3.589-8-8s3.589-8 8-8c.074 0 .149.001.226.004.914-4.055 4.527-7.004 8.774-7.004 1.162 0 2.315.227 3.386.661 1.927-3.47 5.598-5.661 9.614-5.661 2.469 0 4.743.828 6.581 2.206l2.484-2.484 2.489 1.48c.317-.147.638-.281.956-.4l.713-2.802h7.555l.713 2.802c.318.119.639.252.956.4l2.489-1.48 5.342 5.342-1.479 2.489c.146.318.28.637.399.957zm-50.198 17.49v-1c0-1.654 1.346-3 3-3h1v-6h6v6h2v-12h6v12h2v-8h6v8h8.31c.444-.934.69-1.956.69-3 0-2.875-1.728-5.425-4.401-6.496l-.667-.267.053-.899c.006-.112.015-.224.015-.338 0-4.962-4.037-9-9-9-3.567 0-6.802 2.115-8.24 5.387l-.439 1-.957-.526c-1.026-.563-2.189-.861-3.364-.861-3.561 0-6.549 2.666-6.951 6.201l-.117 1.031-1.025-.155c-.346-.053-.634-.077-.907-.077-3.309 0-6 2.691-6 6s2.691 6 6 6zm35.047-12.588c.486.611.895 1.28 1.207 1.999.4.296.977.589 1.746.589 1.654 0 3-1.346 3-3s-1.346-3-3-3-3 1.346-3 3c0 .131.027.273.047.412zm1.953 5.588c0 .305-.029.608-.06.91.354.056.709.09 1.06.09 3.859 0 7-3.14 7-7s-3.141-7-7-7c-2.554 0-4.857 1.379-6.097 3.604.056.439.095.884.097 1.337.425.21.823.458 1.203.726.588-2.107 2.505-3.667 4.797-3.667 2.757 0 5 2.243 5 5s-2.243 5-5 5c-.366 0-.725-.056-1.08-.137.047.374.08.752.08 1.137zm-13-3h-2v6h2zm-8-4h-2v10h2zm-8 6h-2v4h2zm29 34h-34c-.552 0-1 .449-1 1v4c0 .551.448 1 1 1h34c.552 0 1-.449 1-1v-4c0-.551-.448-1-1-1zm-2-6h-30v4h30zm2-8h-34c-.552 0-1 .449-1 1v4c0 .551.448 1 1 1h34c.552 0 1-.449 1-1v-4c0-.551-.448-1-1-1zm-2-6h-30v4h30zm3-7c0-.551-.448-1-1-1h-34c-.552 0-1 .449-1 1v4c0 .551.448 1 1 1h34c.552 0 1-.449 1-1zm13-14.223-2.354-.599-.168-.528c-.179-.558-.416-1.125-.705-1.683l-.255-.493 1.246-2.095-3.143-3.143-2.095 1.246-.492-.254c-.56-.289-1.126-.525-1.686-.704l-.528-.17-.597-2.354h-4.445l-.598 2.354-.528.169c-.56.179-1.126.415-1.686.704l-.492.254-2.095-1.246-1.312 1.312c.938 1.014 1.685 2.202 2.191 3.513 1.682-1.92 4.108-3.06 6.742-3.06 4.963 0 9 4.038 9 9s-4.037 9-9 9c-.494 0-.99-.057-1.485-.141-.016.047-.031.094-.048.141h.533c1.654 0 3 1.346 3 3v1h.223l.598-2.354.528-.169c.56-.179 1.126-.415 1.686-.704l.492-.254 2.095 1.246 3.143-3.143-1.246-2.096.256-.493c.288-.558.525-1.124.704-1.683l.168-.528 2.353-.599z" fill="#d9232d"/></svg>