<svg height="496pt" viewBox="0 0 496 496" width="496pt" xmlns="http://www.w3.org/2000/svg" xmlns:xlink="http://www.w3.org/1999/xlink"><linearGradient id="a" gradientUnits="userSpaceOnUse" x1="248" x2="248" y1="496" y2="0"><stop offset="0" stop-color="#9f2fff"/><stop offset="1" stop-color="#0bb1d3"/></linearGradient><path d="m200 48h-16v-16h16zm80-16h-64v16h64zm32 0h-16v16h16zm-88 432h48v-16h-48zm-58.632812-242.054688-53.367188 53.367188-53.367188-53.367188c-6.855468-6.855468-10.632812-15.96875-10.632812-25.65625 0-20.007812 16.28125-36.289062 36.289062-36.289062 9.6875 0 18.808594 3.777344 25.65625 10.632812l2.054688 2.054688 2.054688-2.054688c6.855468-6.855468 15.96875-10.632812 25.65625-10.632812 20.007812 0 36.289062 16.28125 36.289062 36.289062 0 9.6875-3.777344 18.800782-10.632812 25.65625zm-5.367188-25.65625c0-11.183593-9.105469-20.289062-20.289062-20.289062-5.414063 0-10.511719 2.113281-14.34375 5.945312l-13.367188 13.367188-13.367188-13.367188c-3.832031-3.832031-8.929687-5.945312-14.34375-5.945312-11.183593 0-20.289062 9.105469-20.289062 20.289062 0 5.414063 2.113281 10.511719 5.945312 14.34375l42.054688 42.054688 42.054688-42.054688c3.832031-3.832031 5.945312-8.929687 5.945312-14.34375zm313.480469 23.535157 22.519531 6.039062v60.28125l-22.519531 6.039063c-.894531 2.382812-1.886719 4.769531-2.992188 7.136718l11.671875 20.230469-42.625 42.609375-20.230468-11.671875c-2.367188 1.105469-4.753907 2.097657-7.136719 2.992188l-6.03125 22.519531h-14.136719v80c0 22.054688-17.945312 40-40 40h-208c-22.054688 0-40-17.945312-40-40v-144l-10.664062-8h-69.335938c-13.230469 0-24-10.769531-24-24v-128c0-13.230469 10.769531-24 24-24h80v-88c0-22.054688 17.945312-40 40-40h208c22.054688 0 40 17.945312 40 40v96h14.136719l6.039062 22.519531c2.382813.894531 4.769531 1.886719 7.136719 2.992188l20.230469-11.671875 42.625 42.625-11.671875 20.230468c1.089844 2.359376 2.089844 4.746094 2.984375 7.128907zm-353.480469-179.824219v24h256v-24c0-13.230469-10.769531-24-24-24h-208c-13.230469 0-24 10.769531-24 24zm0 88h16v-32h224v40h16v-56h-256zm149.832031 64.457031 42.625-42.625 20.230469 11.671875c2.367188-1.097656 4.753906-2.097656 7.136719-2.992187l4.175781-15.566407v-30.945312h-192v16h48c13.230469 0 24 10.769531 24 24v128c0 13.230469-10.769531 24-24 24h-32v56l-16-12v36h192v-14.945312l-4.175781-15.574219c-2.382813-.894531-4.761719-1.886719-7.136719-2.992188l-20.230469 11.671875-42.625-42.609375 11.671875-20.230469c-1.097656-2.367187-2.097656-4.753906-2.992187-7.136718l-22.511719-6.039063v-60.28125l22.519531-6.039062c.894531-2.382813 1.886719-4.769531 2.992188-7.136719zm-171.167969 95.542969 53.335938 40v-40h48c4.40625 0 8-3.585938 8-8v-128c0-4.40625-3.59375-8-8-8h-176c-4.40625 0-8 3.59375-8 8v128c0 4.414062 3.59375 8 8 8zm277.335938 168v-24h-256v24c0 13.230469 10.769531 24 24 24h208c13.230469 0 24-10.769531 24-24zm0-80h-16v24h-224v-64l-16-12v92h256zm104-137.863281-18.953125-5.082031-1.335937-4.132813c-1.382813-4.289063-3.199219-8.625-5.390626-12.90625l-1.984374-3.871094 9.839843-17.046875-25.265625-25.265625-17.046875 9.839844-3.871093-1.984375c-4.28125-2.191406-8.617188-4.007812-12.902344-5.390625l-4.136719-1.335937-5.089844-18.960938h-35.726562l-5.082031 18.953125-4.132813 1.335937c-4.289063 1.382813-8.625 3.199219-12.90625 5.390626l-3.871094 1.984374-17.046875-9.839843-25.265625 25.265625 9.839844 17.046875-1.984375 3.871093c-2.191406 4.28125-4.007812 8.617188-5.390625 12.902344l-1.335937 4.136719-18.960938 5.089844v35.71875l18.953125 5.089843 1.335937 4.132813c1.390626 4.289063 3.207032 8.632813 5.390626 12.90625l1.984374 3.871094-9.839843 17.046875 25.265625 25.265625 17.046875-9.832031 3.871093 1.976562c4.289063 2.191406 8.632813 4.007812 12.914063 5.398438l4.132813 1.34375 5.082031 18.945312h35.726562l5.082031-18.945312 4.132813-1.34375c4.289063-1.390626 8.632813-3.199219 12.914063-5.398438l3.871093-1.976562 17.046875 9.832031 25.265625-25.265625-9.839843-17.046875 1.984374-3.871094c2.183594-4.273437 4-8.617187 5.390626-12.90625l1.335937-4.132813 18.953125-5.089843zm-32 17.863281c0 39.703125-32.304688 72-72 72s-72-32.296875-72-72c0-39.695312 32.304688-72 72-72s72 32.304688 72 72zm-16 0c0-30.878906-25.121094-56-56-56s-56 25.121094-56 56c0 30.871094 25.121094 56 56 56s56-25.128906 56-56zm-16 0c0 22.054688-17.945312 40-40 40s-40-17.945312-40-40 17.945312-40 40-40 40 17.945312 40 40zm-16 0c0-13.230469-10.769531-24-24-24s-24 10.769531-24 24 10.769531 24 24 24 24-10.769531 24-24zm0 0" fill="#d9232d"/></svg>