<svg id="Layer_5" enable-background="new 0 0 64 64" height="512" viewBox="0 0 64 64" width="512" xmlns="http://www.w3.org/2000/svg" xmlns:xlink="http://www.w3.org/1999/xlink"><linearGradient id="SVGID_1_" gradientUnits="userSpaceOnUse" x1="32" x2="32" y1="63" y2="1"><stop offset="0" stop-color="#9f2fff"/><stop offset="1" stop-color="#0bb1d3"/></linearGradient><path d="m24 29h-8v16h-12.193l.776 1.468c5.393 10.197 15.898 16.532 27.417 16.532s22.024-6.335 27.417-16.532l.776-1.468h-10.193v-12h-8v-12h-18zm-6 2h10v14h-10zm14 30c-1.874 0-3.766-2.237-5.325-6h10.65c-1.559 3.763-3.451 6-5.325 6zm7.49-6h10.168c-3.861 2.968-8.439 4.934-13.343 5.667 1.177-1.349 2.248-3.257 3.175-5.667zm-11.804 5.667c-4.904-.734-9.482-2.7-13.343-5.667h10.167c.927 2.41 1.998 4.318 3.176 5.667zm-1.759-7.667c-.598-1.771-1.127-3.786-1.563-6h5.636 6 3.635c-.436 2.214-.964 4.229-1.563 6zm-18.745-6h8.818 6.329c.417 2.201.913 4.211 1.481 6h-11.807c-1.842-1.757-3.47-3.764-4.821-6zm49.636 0c-1.351 2.236-2.98 4.243-4.822 6h-11.807c.568-1.789 1.064-3.799 1.481-6h8.33zm-8.818-2h-10v-10h10zm-8-22v10h-4v12h-6v-16h-4v-6zm-28-22c-6.065 0-11 4.935-11 11s4.935 11 11 11 11-4.935 11-11-4.935-11-11-11zm-5.632 18.009c.837-2.381 3.065-4.009 5.632-4.009s4.795 1.628 5.632 4.009c-1.544 1.243-3.501 1.991-5.632 1.991s-4.088-.748-5.632-1.991zm2.632-9.009c0-1.654 1.346-3 3-3s3 1.346 3 3-1.346 3-3 3-3-1.346-3-3zm10.153 7.44c-.822-1.661-2.184-2.97-3.841-3.723 1.027-.916 1.688-2.235 1.688-3.717 0-2.757-2.243-5-5-5s-5 2.243-5 5c0 1.482.661 2.801 1.688 3.717-1.657.753-3.019 2.062-3.841 3.723-1.153-1.513-1.847-3.395-1.847-5.44 0-4.963 4.038-9 9-9s9 4.037 9 9c0 2.045-.694 3.927-1.847 5.44zm32.847-16.44c-6.065 0-11 4.935-11 11s4.935 11 11 11 11-4.935 11-11-4.935-11-11-11zm-5.632 18.009c.837-2.381 3.065-4.009 5.632-4.009s4.795 1.628 5.632 4.009c-1.544 1.243-3.501 1.991-5.632 1.991s-4.088-.748-5.632-1.991zm2.632-9.009c0-1.654 1.346-3 3-3s3 1.346 3 3-1.346 3-3 3-3-1.346-3-3zm10.153 7.44c-.822-1.661-2.184-2.97-3.841-3.723 1.027-.916 1.688-2.235 1.688-3.717 0-2.757-2.243-5-5-5s-5 2.243-5 5c0 1.482.661 2.801 1.688 3.717-1.657.753-3.019 2.062-3.841 3.723-1.153-1.513-1.847-3.395-1.847-5.44 0-4.963 4.038-9 9-9s9 4.037 9 9c0 2.045-.694 3.927-1.847 5.44zm-26.153-2.44h-2v-8.586l-3.293 3.293-1.414-1.414 5.707-5.707 5.707 5.707-1.414 1.414-3.293-3.293zm-2 2h2v2h-2zm17 12h9.586l-3.293-3.293 1.414-1.414 5.707 5.707-5.707 5.707-1.414-1.414 3.293-3.293h-9.586zm-38.293-3.293-3.293 3.293h7.586v2h-7.586l3.293 3.293-1.414 1.414-5.707-5.707 5.707-5.707zm24.293 13.293h-2v-2h2zm0 4h-2v-2h2zm0-12h-2v-2h2zm0-4h-2v-2h2zm0 8h-2v-2h2zm4-4h-2v-2h2zm0-4h-2v-2h2zm-8 0h-2v-2h2zm-10 6h2v2h-2zm4 0h2v2h-2zm0 4h2v2h-2zm-4 0h2v2h-2zm4 4h2v2h-2zm-4 0h2v2h-2zm26-2h-2v-2h2zm-4 0h-2v-2h2zm0 4h-2v-2h2zm4 0h-2v-2h2z" fill="#d9232d"/></svg>